#!OML:ASF F:\VICON\USERDATA\INSTALL\rory3\rory3.ASF
:FULLY-SPECIFIED
:DEGREES
54
root 0.41071447785588866 17.716333549911347 21.797869501659427 -2.089593991067953 -4.3032526832774565 -5.0438430446704015
lfemur -23.657577522641873 -3.6627779916112764 -15.839099813088849
ltibia 23.31992442695354
lfoot -2.217705580385844 -1.3360459230490949
ltoes -1.9803156929186003
rfemur 11.654015864741957 5.159629752889835 29.815443010643534
rtibia 38.09622198895631
rfoot -3.4199950384966833 2.286820049505719
rtoes -2.5695499250203304
lowerback 8.677064740071605 2.9634768894671257 5.276705571116374
upperback 0.15511189529645758 4.5093585826061595 1.0706973644308793
thorax -4.5845608233672825 2.1346094119388077 -2.190931787063221
lowerneck -16.699804761777205 -3.334466731937976 -1.6064188131743284
upperneck 20.63080865757547 -4.481725357422124 1.5169106729393045
head 9.310116276077606 -2.0637149353137767 0.1791636137970745
lclavicle -2.1130850403831216e-15 7.599952676495816e-16
lhumerus -39.65285307998038 8.638533772610238 81.14898965652807
lradius 18.233449243631043
lwrist -1.6126139090972789
lhand -25.12860388810564 24.041002864524252
lfingers 7.12502
lthumb 1.3873939501422112 54.01398345185077
rclavicle -2.1130850403831216e-15 7.599952676495816e-16
rhumerus -23.925410772717562 -12.969510285601821 -81.74321617675791
rradius 29.26289433077193
rwrist 1.914635375376382
rhand -18.532993418410417 23.90419080271811
rfingers 7.12502
rthumb 7.755819521611473 -5.934909405543647
55
root 0.5347771800994429 17.78075630422243 23.487383803420965 -2.714872264939566 -4.2536539367108075 -3.534630411057734
lfemur -21.51480697474111 -3.2322292746148324 -18.335084163272924
ltibia 26.88325274711776
lfoot -3.1169959229084196 -1.8285151344483297
ltoes -0.5777624572839946
rfemur 7.589018578380923 4.098795432887068 27.174968558273786
rtibia 48.01714618664356
rfoot 7.5879246238037386 3.174213518696307
rtoes 3.9234486171424185
lowerback 8.899078937316368 2.9810666537481523 4.07836746396809
upperback 0.1455014876442967 4.394808324002145 0.7207427819362618
thorax -4.71734665834308 2.0985523166770754 -1.825962039581654
lowerneck -16.617743793792737 -3.3123579892644828 -1.6675706190002486
upperneck 20.741157871516375 -4.4549710676595025 1.5855604409135895
head 9.344738417606084 -2.049608451746185 0.21616941363498576
lclavicle -1.8971921966924904e-15 9.594995263099864e-16
lhumerus -39.52633884961185 8.790725190164233 80.98888889586087
lradius 18.3686644025799
lwrist -0.7583444335634661
lhand -24.752284801542935 24.77077194442991
lfingers 7.12502
lthumb 1.7508771258318314 54.741938352122524
rclavicle -1.89719219669249e-15 9.594995263099864e-16
rhumerus -24.930958345382024 -14.347292716314088 -81.39198165289594
rradius 28.77611527741803
rwrist 2.7575519698759807
rhand -18.269512567604536 23.612731807580516
rfingers 7.12502
rthumb 8.010128303465633 -6.216999520128712
56
root 0.6245533882206572 17.845799576831045 24.454921923175952 -3.275393608230974 -4.542930394393112 -2.085435546246033
lfemur -18.66528767232151 -3.163801920866619 -20.71091406495144
ltibia 28.184861356062793
lfoot -5.115077614501504 -0.8529308811250174
ltoes 0.449357972858873
rfemur 1.6464145106363777 3.0208098056783594 24.535966496085788
rtibia 57.96341015559592
rfoot 14.432180412982447 1.1328473695199204
rtoes 9.91492964449121
lowerback 9.258448083700207 2.908018955632603 2.6783880800408086
upperback 0.2126937965051714 4.147221040132683 0.41650620099762037
thorax -4.862517094762839 2.0008421910825325 -1.3766643133226397
lowerneck -16.66569754104996 -3.206188500405425 -1.7259900466586513
upperneck 20.702129807756638 -4.2973129478046985 1.570681997431078
head 9.340764762978848 -1.983089647357375 0.24389125724558572
lclavicle -1.982151089614364e-15 8.819406488409039e-16
lhumerus -38.962016640644855 8.094229133396604 81.25949460663396
lradius 19.059275578654216
lwrist 0.9888727755760254
lhand -25.30058611608858 24.72587542535371
lfingers 7.12502
lthumb 1.2213442283179623 54.693142047193774
rclavicle -1.982151089614364e-15 8.819406488409039e-16
rhumerus -25.723192133658333 -15.622413685059856 -81.1432104591014
rradius 27.92815832180746
rwrist 3.9870864866190385
rhand -17.959042195705155 23.153073655694723
rfingers 7.12502
rthumb 8.30978504588213 -6.664722961015209
57
root 0.6940048809415573 17.90689678412966 25.825343116198297 -3.6738338361157443 -4.677183373590966 -0.7107552824090644
lfemur -14.918558787534963 -3.2187610634801223 -22.401650773967138
ltibia 28.685000575180975
lfoot -7.01970182698959 1.0165421584787553
ltoes 1.4493950114704872
rfemur -4.033495338948995 2.0132178834619263 22.78673592643627
rtibia 67.21455890200235
rfoot 14.784997575149156 -2.4025333390235857
rtoes 12.824969000398914
lowerback 9.639836117415035 2.7715944750480443 1.5784907983669554
upperback 0.37514089570619613 3.8442612837797316 0.27311881881221556
thorax -4.927786745896174 1.8725612781672931 -0.7651445421236195
lowerneck -16.671415518301625 -3.037061774307508 -1.745745571136264
upperneck 20.640450872537215 -4.035724343284914 1.5090823629679622
head 9.32615776477343 -1.8779699254710773 0.27044125585371676
lclavicle -1.351389816278701e-15 1.4629338555367725e-15
lhumerus -37.66504130836038 7.224117756813228 81.84365785979466
lradius 19.979348269137574
lwrist 2.70301388279864
lhand -26.28916844083651 23.97745544180055
lfingers 7.12502
lthumb 0.26656435327705474 53.940490670888835
rclavicle -1.351389816278701e-15 1.4629338555367725e-15
rhumerus -25.99141148923861 -16.572933109177505 -80.82118778287254
rradius 27.031903328869433
rwrist 5.673698395048038
rhand -17.6251161762261 22.693657841970502
rfingers 7.12502
rthumb 8.632070204036884 -7.113200011502913
58
root 0.7456412340012991 17.94519421999288 26.81299289921636 -3.9563328511587064 -4.56508412856212 0.25117367609203756
lfemur -11.640199193002058 -3.442463352844065 -23.884814393465593
ltibia 28.032954208775724
lfoot -9.02883452981926 2.537255521827581
ltoes 1.9155598181643314
rfemur -9.81542467648411 0.9676199688736995 21.549958654993507
rtibia 73.55757804563595
rfoot 9.8700411983917 -5.546385416089185
rtoes 12.325747188530167
lowerback 9.912480811456325 2.440729401578032 0.6752700970842607
upperback 0.545656636134165 3.305962200221463 0.23453084118173795
thorax -4.947907290694623 1.6260419189531075 -0.22313961661551895
lowerneck -16.602952585486765 -2.857903604198668 -1.7706466881939549
upperneck 20.613716385731593 -3.7544995473260876 1.3591888525223168
head 9.306390673354764 -1.7680800498376728 0.27425266279104743
lclavicle -1.148436507509755e-15 1.6486069666065582e-15
lhumerus -36.09167367949418 6.01199746680598 82.40234195758019
lradius 20.702680120630426
lwrist 3.483459294213459
lhand -27.108347523388055 22.85391469144646
lfingers 7.12502
lthumb -0.5246172472911966 52.815082500247435
rclavicle -1.148436507509755e-15 1.6486069666065582e-15
rhumerus -26.2199027621825 -17.610682877651247 -80.59301424454733
rradius 26.213403638658626
rwrist 6.933265606785134
rhand -17.375164336022667 22.199712005745916
rfingers 7.12502
rthumb 8.87330427434948 -7.597197334390812
59
root 0.7899358011792401 17.961637934557643 27.849972914924138 -4.126956741096254 -4.087228577454798 0.8390612654420817
lfemur -8.867896730611651 -3.685757811637105 -25.009366026842663
ltibia 27.468233601650354
lfoot -10.801933363749942 3.4635476416235838
ltoes 1.9743870456880184
rfemur -15.308094347373144 0.045829298678864205 20.95026643176053
rtibia 76.67207431097279
rfoot 3.0833222015385253 -6.703747044907769
rtoes 10.262693370714452
lowerback 10.11063339950501 1.9551807583303935 0.03397559358936264
upperback 0.6644957981981011 2.5925117157530506 0.3134551659121392
thorax -4.9696435559306265 1.2889915101782132 0.281335558017745
lowerneck -16.46034574393408 -2.710755498385181 -1.832134967574686
upperneck 20.659837906853678 -3.5196919289207282 1.200655437014512
head 9.296600528782925 -1.678088724222987 0.2761429148221608
lclavicle -1.1240767808686914e-15 1.6701091127346364e-15
lhumerus -34.25123825471139 4.526764973700601 82.83099134692898
lradius 21.31399818885251
lwrist 3.4535245226197637
lhand -27.398388940364523 22.22387642541417
lfingers 7.12502
lthumb -0.8047635928898924 52.18682812681103
rclavicle -1.1240767808686912e-15 1.6701091127346364e-15
rhumerus -26.64599169630131 -18.589650784566004 -80.31787431667877
rradius 25.678320634034925
rwrist 7.418162631948046
rhand -17.225832864223797 21.944433681392205
rfingers 7.12502
rthumb 9.017413781564544 -7.8453757812944955
